# xmcd
#
# Track frame offsets:
#	150
#	13870
#	24964
#	36596
#	56093
#	70709
#	85942
#
# Disc length: 1348 seconds
#
# Revision: 0
# Processed by: cddbd v1.4PL0 Copyright (c) Steve Scherf et al.
# Submitted via: dBpowerAMP V4.0
#
DISCID=56054207
DTITLE=Lyne Faucher - Soif de Vivre
DYEAR=1998
DGENRE=Ballad
TTITLE0=La Haine en Héritage
TTITLE1=Soif de Vivre
TTITLE2=Maintenant
TTITLE3=Hommage à Céline
TTITLE4=Ma Petite
TTITLE5=Docteur en Folie
TTITLE6=J'ai besoin
EXTD=Soif de vivre \nLyne Faucher
EXTT0=
EXTT1=
EXTT2=
EXTT3=
EXTT4=
EXTT5=
EXTT6=
PLAYORDER=
